<svg xmlns="http://www.w3.org/2000/svg" width="320" height="320" viewBox="0 0 320 320">
<g>
<path d="M 176.00 262.45 C164.56,264.31 139.02,264.36 127.50,262.54 C109.25,259.68 94.91,254.19 86.65,246.92 C81.62,242.49 79.68,239.53 76.50,231.36 C74.87,227.21 73.15,225.18 67.50,220.74 C50.64,207.53 38.45,186.18 34.42,162.84 C33.57,157.91 33.03,153.40 33.23,152.81 C33.43,152.22 35.23,155.60 37.23,160.33 C49.35,188.97 69.17,209.79 96.41,222.53 C120.59,233.83 142.52,237.25 167.09,233.54 C203.10,228.11 231.52,210.99 249.62,183.81 C253.95,177.31 261.00,163.22 261.00,161.07 C261.00,160.48 261.51,160.00 262.13,160.00 C263.70,160.00 262.43,170.38 259.82,178.84 C253.13,200.51 239.35,217.26 217.70,230.00 L 210.06 234.50 L 210.02 240.00 C209.98,247.16 207.57,251.06 200.79,254.95 C194.34,258.65 188.43,260.44 176.00,262.45 ZM 184.05 170.96 C166.09,172.35 123.88,172.08 106.50,170.46 C78.44,167.86 57.73,163.65 45.58,158.08 C25.83,149.02 31.57,138.82 60.58,131.45 C73.34,128.21 76.57,128.57 68.50,132.32 C55.94,138.17 54.55,143.77 64.27,149.38 C90.87,164.72 182.74,168.62 232.29,156.50 C248.14,152.63 258.02,147.27 257.98,142.58 C257.96,139.63 257.04,138.56 252.50,136.18 C250.10,134.93 249.22,134.07 250.30,134.04 C252.58,133.99 257.83,136.62 260.75,139.29 C265.41,143.55 263.04,151.34 255.70,155.87 C244.88,162.56 217.10,168.41 184.05,170.96 ZM 214.00 153.60 C205.42,155.01 179.88,155.55 178.69,154.36 C176.82,152.48 224.54,105.69 256.35,78.21 C259.98,75.07 260.19,74.57 260.72,67.49 C261.32,59.55 262.41,57.68 267.13,56.50 C269.35,55.94 270.84,56.77 276.63,61.78 C287.82,71.46 289.18,73.81 286.53,78.94 C284.80,82.28 283.72,82.68 273.53,83.76 L 266.56 84.50 L 239.33 115.00 C224.35,131.77 212.07,145.82 212.05,146.20 C211.96,147.55 219.28,148.26 227.76,147.74 C232.87,147.42 235.73,147.56 234.89,148.09 C232.48,149.61 222.83,152.16 214.00,153.60 ZM 132.86 253.48 C151.40,256.01 173.20,254.74 189.64,250.17 C200.50,247.16 203.00,245.24 203.00,239.95 C203.00,238.16 202.59,237.88 200.75,238.40 C176.47,245.27 167.90,246.37 143.59,245.72 C127.90,245.30 122.61,244.76 113.90,242.69 C103.25,240.16 89.08,234.85 82.85,231.05 C76.88,227.41 76.33,228.92 81.79,234.01 C91.66,243.22 110.61,250.44 132.86,253.48 ZM 83.36 206.19 C91.61,214.34 97.94,220.99 97.43,220.98 C96.04,220.94 85.16,214.92 79.77,211.20 C67.34,202.62 54.95,188.18 47.19,173.25 C44.83,168.71 43.10,165.00 43.35,165.00 C43.60,165.00 46.07,166.53 48.86,168.40 C57.23,174.04 78.28,180.10 105.00,184.58 C108.98,185.25 109.21,185.42 107.00,186.07 C100.09,188.09 79.86,186.46 68.64,182.97 C65.31,181.93 62.41,181.26 62.20,181.47 C61.08,182.58 70.00,193.01 83.36,206.19 ZM 189.90 218.87 C175.26,223.44 173.14,222.59 184.26,216.60 C201.28,207.44 222.35,192.04 237.95,177.37 C242.38,173.20 246.00,170.23 246.00,170.77 C246.00,173.26 234.96,188.26 228.11,195.08 C216.64,206.49 203.64,214.59 189.90,218.87 ZM 192.72 198.49 C186.87,200.23 175.12,200.34 170.00,198.70 C166.84,197.69 167.61,197.52 178.00,196.91 C184.32,196.54 192.84,195.52 196.93,194.64 C201.02,193.75 204.56,193.22 204.79,193.46 C205.34,194.01 199.20,196.56 192.72,198.49 ZM 205.70 184.50 C197.23,187.21 185.57,187.80 181.00,185.75 C178.89,184.80 180.20,184.52 189.50,183.91 C195.55,183.52 203.57,182.47 207.31,181.60 C219.55,178.73 218.65,180.36 205.70,184.50 Z" fill="rgb(3,3,3)"/>
<path d="M 175.97 149.37 C171.19,153.39 170.50,152.50 174.95,148.05 C177.24,145.76 179.30,142.51 179.86,140.30 C181.30,134.64 181.90,115.00 180.63,115.00 C180.06,115.00 175.41,117.04 170.30,119.52 C159.37,124.84 155.56,129.24 155.52,136.59 C155.49,141.94 153.94,140.72 153.30,134.84 C152.91,131.32 153.31,129.78 155.41,126.71 C158.80,121.74 158.72,117.52 155.13,111.86 C150.83,105.09 140.39,98.62 127.12,94.52 L 124.74 93.78 L 125.19 108.14 C125.57,120.20 126.00,123.30 127.87,127.49 C130.38,133.10 133.10,136.40 137.50,139.13 C141.17,141.41 139.09,141.61 134.79,139.39 C130.61,137.23 128.70,135.25 126.24,130.50 C122.89,124.06 122.01,120.29 120.49,105.88 C119.70,98.39 118.58,91.02 118.00,89.49 C117.42,87.97 117.17,86.50 117.44,86.22 C118.19,85.48 132.55,90.76 140.00,94.51 C152.95,101.04 161.00,109.79 161.00,117.32 L 161.00 120.02 L 166.25 117.06 C171.86,113.89 184.13,109.00 186.45,109.00 C187.54,109.00 187.67,109.68 187.02,111.95 C186.55,113.57 185.88,117.95 185.52,121.70 C184.01,137.52 181.54,144.69 175.97,149.37 ZM 46.58 135.93 C50.23,134.39 54.61,132.93 59.59,131.63 C64.49,130.35 69.18,129.03 70.00,128.69 C77.93,125.48 104.67,124.71 113.27,127.45 C119.52,129.44 125.00,134.43 125.00,138.14 C125.00,140.04 124.71,139.96 121.50,137.13 C116.27,132.54 108.43,130.61 97.79,131.30 C92.97,131.61 88.58,132.14 88.05,132.47 C87.51,132.80 88.62,135.10 90.54,137.61 C92.44,140.11 94.00,142.59 94.00,143.12 C94.00,143.65 90.96,141.66 87.25,138.70 C83.54,135.73 79.10,132.50 77.39,131.52 C74.32,129.76 74.18,129.77 68.39,132.42 C59.03,136.71 55.96,141.04 59.11,145.24 C55.91,141.00 59.03,136.73 68.50,132.32 C76.57,128.57 73.34,128.21 60.58,131.45 C55.07,132.85 50.39,134.35 46.58,135.93 ZM 146.00 151.15 C146.00,152.13 144.61,152.28 143.74,151.40 C143.41,151.08 138.09,150.40 131.92,149.91 C118.82,148.85 112.72,146.55 105.55,139.94 C103.03,137.61 101.16,135.51 101.41,135.26 C101.65,135.02 104.41,136.22 107.54,137.93 C115.63,142.38 124.09,145.00 130.32,145.00 C138.00,145.00 146.00,148.14 146.00,151.15 ZM 150.62 146.75 C151.35,154.72 150.36,156.07 147.76,150.62 C146.30,147.57 145.19,142.64 143.49,131.75 C143.17,129.69 140.94,124.08 138.52,119.27 C136.11,114.46 134.32,110.35 134.54,110.12 C135.36,109.31 138.42,112.62 142.06,118.23 C146.26,124.71 149.62,135.90 150.62,146.75 ZM 163.87 159.25 C161.90,164.12 160.67,162.44 161.30,155.75 C162.26,145.65 165.46,136.84 169.99,131.88 L 173.98 127.50 L 170.98 134.08 C169.32,137.70 167.30,144.23 166.48,148.58 C165.66,152.94 164.48,157.74 163.87,159.25 ZM 118.12 153.39 C115.73,155.55 110.16,156.29 107.25,154.83 C104.44,153.41 104.34,152.00 107.05,152.00 C108.18,152.00 110.42,151.32 112.04,150.48 C114.86,149.02 120.00,149.33 120.00,150.95 C120.00,151.36 119.16,152.45 118.12,153.39 ZM 240.50 132.00 C241.24,133.20 238.29,133.20 235.50,132.00 C233.81,131.28 234.00,131.13 236.69,131.07 C238.45,131.03 240.16,131.45 240.50,132.00 ZM 220.56 178.53 C218.36,180.20 217.00,180.42 217.00,179.11 C217.00,178.15 219.43,176.98 221.33,177.03 C221.97,177.05 221.63,177.72 220.56,178.53 ZM 84.75 216.31 C64.41,204.01 49.01,186.40 38.68,163.63 C39.59,165.59 40.60,167.68 41.57,169.59 C51.57,189.19 66.31,205.01 84.75,216.31 ZM 223.28 211.38 C233.45,203.78 242.78,194.08 249.62,183.81 C242.42,194.62 233.58,203.85 223.28,211.38 ZM 165.41 233.79 C146.40,236.41 128.92,234.72 110.67,228.36 C116.17,230.22 121.88,231.75 127.78,232.96 C139.36,235.32 152.35,235.52 165.41,233.79 ZM 60.29 146.53 C63.17,149.23 68.66,151.87 76.76,154.40 C81.68,155.93 87.32,157.28 93.50,158.44 C80.96,156.13 70.70,153.09 64.27,149.38 C62.62,148.43 61.29,147.48 60.29,146.53 Z" fill="rgb(151,175,118)"/>
<path d="M 0.00 160.00 L 0.00 0.00 L 160.00 0.00 L 320.00 0.00 L 320.00 160.00 L 320.00 320.00 L 160.00 320.00 L 0.00 320.00 L 0.00 160.00 ZM 176.00 262.45 C188.43,260.44 194.34,258.65 200.79,254.95 C207.57,251.06 209.98,247.16 210.02,240.00 L 210.06 234.50 L 217.70 230.00 C239.35,217.26 253.13,200.51 259.82,178.84 C262.43,170.38 263.70,160.00 262.13,160.00 C261.51,160.00 261.00,160.48 261.00,161.07 C261.00,163.22 253.95,177.31 249.62,183.81 C240.24,197.89 226.19,210.89 211.72,218.88 C186.66,232.71 153.70,238.24 127.78,232.96 C88.85,225.02 58.46,202.69 41.57,169.59 C39.16,164.86 36.53,159.06 35.73,156.72 L 34.27 152.45 L 42.89 156.67 C62.82,166.45 100.62,171.98 147.55,171.99 C189.12,172.00 221.18,168.29 243.47,160.87 C253.51,157.54 258.01,155.07 260.98,151.29 C263.77,147.75 263.66,141.95 260.75,139.29 C257.83,136.62 252.58,133.99 250.30,134.04 C249.22,134.07 250.10,134.93 252.50,136.18 C257.04,138.56 257.96,139.63 257.98,142.58 C258.02,147.27 248.14,152.63 232.29,156.50 C189.90,166.87 113.41,165.83 76.76,154.40 C54.90,147.57 51.99,139.93 68.39,132.42 C74.18,129.77 74.32,129.76 77.39,131.52 C79.10,132.50 83.54,135.73 87.25,138.70 C90.96,141.66 94.00,143.65 94.00,143.12 C94.00,142.59 92.44,140.11 90.54,137.61 C88.62,135.10 87.51,132.80 88.05,132.47 C88.58,132.14 92.97,131.61 97.79,131.30 C108.43,130.61 116.27,132.54 121.50,137.13 C124.71,139.96 125.00,140.04 125.00,138.14 C125.00,134.43 119.52,129.44 113.27,127.45 C104.67,124.71 77.93,125.48 70.00,128.69 C69.18,129.03 64.49,130.35 59.59,131.63 C43.69,135.79 34.00,141.49 34.00,146.69 C34.00,147.96 33.50,149.00 32.89,149.00 C32.22,149.00 31.97,150.10 32.27,151.75 C32.54,153.26 33.49,158.40 34.38,163.18 C38.73,186.67 50.80,207.65 67.50,220.74 C73.15,225.18 74.87,227.21 76.50,231.36 C79.68,239.53 81.62,242.49 86.65,246.92 C94.91,254.19 109.25,259.68 127.50,262.54 C139.02,264.36 164.56,264.31 176.00,262.45 ZM 189.90 218.87 C203.64,214.59 216.64,206.49 228.11,195.08 C234.96,188.26 246.00,173.26 246.00,170.77 C246.00,170.23 242.38,173.20 237.95,177.37 C222.35,192.04 201.28,207.44 184.26,216.60 C173.14,222.59 175.26,223.44 189.90,218.87 ZM 83.36 206.19 C70.00,193.01 61.08,182.58 62.20,181.47 C62.41,181.26 65.31,181.93 68.64,182.97 C79.86,186.46 100.09,188.09 107.00,186.07 C109.21,185.42 108.98,185.25 105.00,184.58 C78.28,180.10 57.23,174.04 48.86,168.40 C46.07,166.53 43.60,165.00 43.35,165.00 C43.10,165.00 44.83,168.71 47.19,173.25 C54.95,188.18 67.34,202.62 79.77,211.20 C85.16,214.92 96.04,220.94 97.43,220.98 C97.94,220.99 91.61,214.34 83.36,206.19 ZM 192.72 198.49 C199.20,196.56 205.34,194.01 204.79,193.46 C204.56,193.22 201.02,193.75 196.93,194.64 C192.84,195.52 184.32,196.54 178.00,196.91 C167.61,197.52 166.84,197.69 170.00,198.70 C175.12,200.34 186.87,200.23 192.72,198.49 ZM 205.70 184.50 C218.65,180.36 219.55,178.73 207.31,181.60 C203.57,182.47 195.55,183.52 189.50,183.91 C180.20,184.52 178.89,184.80 181.00,185.75 C185.57,187.80 197.23,187.21 205.70,184.50 ZM 220.56 178.53 C221.63,177.72 221.97,177.05 221.33,177.03 C219.43,176.98 217.00,178.15 217.00,179.11 C217.00,180.42 218.36,180.20 220.56,178.53 ZM 163.87 159.25 C164.48,157.74 165.66,152.94 166.48,148.58 C167.30,144.23 169.32,137.70 170.98,134.08 L 173.98 127.50 L 169.99 131.88 C165.46,136.84 162.26,145.65 161.30,155.75 C160.67,162.44 161.90,164.12 163.87,159.25 ZM 118.12 153.39 C119.16,152.45 120.00,151.36 120.00,150.95 C120.00,149.33 114.86,149.02 112.04,150.48 C110.42,151.32 108.18,152.00 107.05,152.00 C104.34,152.00 104.44,153.41 107.25,154.83 C110.16,156.29 115.73,155.55 118.12,153.39 ZM 214.00 153.60 C222.83,152.16 232.48,149.61 234.89,148.09 C235.73,147.56 232.87,147.42 227.76,147.74 C219.28,148.26 211.96,147.55 212.05,146.20 C212.07,145.82 224.35,131.77 239.33,115.00 L 266.56 84.50 L 273.53 83.76 C283.72,82.68 284.80,82.28 286.53,78.94 C289.18,73.81 287.82,71.46 276.63,61.78 C270.84,56.77 269.35,55.94 267.13,56.50 C262.41,57.68 261.32,59.55 260.72,67.49 C260.19,74.57 259.98,75.07 256.35,78.21 C224.54,105.69 176.82,152.48 178.69,154.36 C179.88,155.55 205.42,155.01 214.00,153.60 ZM 150.62 146.75 C149.62,135.90 146.26,124.71 142.06,118.23 C138.42,112.62 135.36,109.31 134.54,110.12 C134.32,110.35 136.11,114.46 138.52,119.27 C140.94,124.08 143.17,129.69 143.49,131.75 C145.19,142.64 146.30,147.57 147.76,150.62 C150.36,156.07 151.35,154.72 150.62,146.75 ZM 146.00 151.15 C146.00,148.14 138.00,145.00 130.32,145.00 C124.09,145.00 115.63,142.38 107.54,137.93 C104.41,136.22 101.65,135.02 101.41,135.26 C101.16,135.51 103.03,137.61 105.55,139.94 C112.72,146.55 118.82,148.85 131.92,149.91 C138.09,150.40 143.41,151.08 143.74,151.40 C144.61,152.28 146.00,152.13 146.00,151.15 ZM 175.97 149.37 C181.54,144.69 184.01,137.52 185.52,121.70 C185.88,117.95 186.55,113.57 187.02,111.95 C187.67,109.68 187.54,109.00 186.45,109.00 C184.13,109.00 171.86,113.89 166.25,117.06 L 161.00 120.02 L 161.00 117.32 C161.00,109.79 152.95,101.04 140.00,94.51 C132.55,90.76 118.19,85.48 117.44,86.22 C117.17,86.50 117.42,87.97 118.00,89.49 C118.58,91.02 119.70,98.39 120.49,105.88 C122.01,120.29 122.89,124.06 126.24,130.50 C128.70,135.25 130.61,137.23 134.79,139.39 C139.09,141.61 141.17,141.41 137.50,139.13 C133.10,136.40 130.38,133.10 127.87,127.49 C126.00,123.30 125.57,120.20 125.19,108.14 L 124.74 93.78 L 127.12 94.52 C140.39,98.62 150.83,105.09 155.13,111.86 C158.72,117.52 158.80,121.74 155.41,126.71 C153.31,129.78 152.91,131.32 153.30,134.84 C153.94,140.72 155.49,141.94 155.52,136.59 C155.56,129.24 159.37,124.84 170.30,119.52 C175.41,117.04 180.06,115.00 180.63,115.00 C181.90,115.00 181.30,134.64 179.86,140.30 C179.30,142.51 177.24,145.76 174.95,148.05 C170.50,152.50 171.19,153.39 175.97,149.37 ZM 240.50 132.00 C240.16,131.45 238.45,131.03 236.69,131.07 C234.00,131.13 233.81,131.28 235.50,132.00 C238.29,133.20 241.24,133.20 240.50,132.00 ZM 132.86 253.48 C110.61,250.44 91.66,243.22 81.79,234.01 C76.33,228.92 76.88,227.41 82.85,231.05 C89.08,234.85 103.25,240.16 113.90,242.69 C122.61,244.76 127.90,245.30 143.59,245.72 C167.90,246.37 176.47,245.27 200.75,238.40 C202.59,237.88 203.00,238.16 203.00,239.95 C203.00,245.24 200.50,247.16 189.64,250.17 C173.20,254.74 151.40,256.01 132.86,253.48 Z" fill="rgb(254,254,254)"/>
</g>
</svg>